# xmcd CD database file
#
# Track frame offsets:
#	150
#	23159
#	43931
#	68015
#	77575
#	97269
#	118569
#	133287
#	144416
#	157561
#	173250
#	195397
#	217263
#
# Disc length: 3130 seconds
#
# Revision: 0
# Processed by: cddbd v1.4PL0 Copyright (c) Steve Scherf et al.
# Submitted via: CDex 1.50beta10
#
DISCID=ac0c380d
DTITLE=Varios - Salsa 10
DYEAR=2003
DGENRE=Salsa
TTITLE0=Ya No Te Puedo Amar - Grupo Gale
TTITLE1=Negrita - Orq Narvaez
TTITLE2=Sabiduria - Orq Narvaez
TTITLE3=Mambo Off Time - Noro Gonzales
TTITLE4=Imaginate Mis Manos - Ruben Acosta
TTITLE5=Cheque Falso - Gran Combo
TTITLE6=Norin Moro - Noro Gonzales
TTITLE7=Yequete - Jhonny Sedez
TTITLE8=Take Off - Randy Carlos
TTITLE9=De Que Tamaño - Hector Lavoe
TTITLE10=Cachondea - Fruko
TTITLE11=Tu Rica Boa - Bobby Valente
TTITLE12=Contaminando - Suprema Corte
EXTD=YEAR: 2003
EXTT0=
EXTT1=
EXTT2=
EXTT3=
EXTT4=
EXTT5=
EXTT6=
EXTT7=
EXTT8=
EXTT9=
EXTT10=
EXTT11=
EXTT12=
PLAYORDER=
